HIERARCHY
ROOT Hips
{
  OFFSET 5.84602e-005 68.8428 3.50346
  CHANNELS 6 Xposition Yposition Zposition Zrotation Xrotation Yrotation
  JOINT Spine
  {
    OFFSET 0 8.597 -4.6522
    CHANNELS 3 Zrotation Xrotation Yrotation
    JOINT Spine1
    {
      OFFSET 0 7.8454 0.4098
      CHANNELS 3 Zrotation Xrotation Yrotation
      JOINT Spine2
      {
        OFFSET 0 9.7078 -2.1609
        CHANNELS 3 Zrotation Xrotation Yrotation
        JOINT Neck
        {
          OFFSET 0 21.8761 -0.4549
          CHANNELS 3 Zrotation Xrotation Yrotation
          JOINT Head
          {
            OFFSET 0 12.3537 3.3602
            CHANNELS 3 Zrotation Xrotation Yrotation
            End Site
            {
              OFFSET 0.0001 18.9506 0.5657
            }
          }
        }
        JOINT LeftShoulder
        {
          OFFSET 2.2086 21.1115 7.2329
          CHANNELS 3 Zrotation Xrotation Yrotation
          JOINT LeftArm
          {
            OFFSET 13.1193 3.0282 -4.8998
            CHANNELS 3 Zrotation Xrotation Yrotation
            JOINT LeftForeArm
            {
              OFFSET 27.4081 -0.0973053 -0.2375
              CHANNELS 3 Zrotation Xrotation Yrotation
              JOINT LeftHand
              {
                OFFSET 22.8641 0.0662994 -0.1369
                CHANNELS 3 Zrotation Xrotation Yrotation
                JOINT LeftHandIndex1
                {
                  OFFSET 8.8614 0.775009 2.4612
                  CHANNELS 3 Zrotation Xrotation Yrotation
                  JOINT LeftHandIndex2
                  {
                    OFFSET 3.3146 -0.808304 0.5841
                    CHANNELS 3 Zrotation Xrotation Yrotation
                    JOINT LeftHandIndex3
                    {
                      OFFSET 2.2628 -0.552002 0.3989
                      CHANNELS 3 Zrotation Xrotation Yrotation
                      End Site
                      {
                        OFFSET 1.6102 -0.4807 0.2612
                      }
                    }
                  }
                }
                JOINT LeftHandMiddle1
                {
                  OFFSET 8.9937 0.895004 0.2143
                  CHANNELS 3 Zrotation Xrotation Yrotation
                  JOINT LeftHandMiddle2
                  {
                    OFFSET 4.0984 0.0113983 -0.0242
                    CHANNELS 3 Zrotation Xrotation Yrotation
                    JOINT LeftHandMiddle3
                    {
                      OFFSET 2.2716 0.00689697 -0.0138001
                      CHANNELS 3 Zrotation Xrotation Yrotation
                      End Site
                      {
                        OFFSET 2.0404 -0.1441 0.0027
                      }
                    }
                  }
                }
                JOINT LeftHandRing1
                {
                  OFFSET 8.5234 0.597198 -2.0164
                  CHANNELS 3 Zrotation Xrotation Yrotation
                  JOINT LeftHandRing2
                  {
                    OFFSET 3.7188 -0.188293 -0.2328
                    CHANNELS 3 Zrotation Xrotation Yrotation
                    JOINT LeftHandRing3
                    {
                      OFFSET 2.1191 -0.106598 -0.1332
                      CHANNELS 3 Zrotation Xrotation Yrotation
                      End Site
                      {
                        OFFSET 1.8737 -0.2304 -0.0886
                      }
                    }
                  }
                }
                JOINT LeftHandPinky1
                {
                  OFFSET 7.9094 -0.601089 -3.4825
                  CHANNELS 3 Zrotation Xrotation Yrotation
                  JOINT LeftHandPinky2
                  {
                    OFFSET 2.2874 -0.477005 -0.6314
                    CHANNELS 3 Zrotation Xrotation Yrotation
                    JOINT LeftHandPinky3
                    {
                      OFFSET 1.6774 -0.349396 -0.4633
                      CHANNELS 3 Zrotation Xrotation Yrotation
                      End Site
                      {
                        OFFSET 1.4888 -0.4091 -0.3416
                      }
                    }
                  }
                }
                JOINT LeftHandThumb1
                {
                  OFFSET 1.833 -1.3875 1.3896
                  CHANNELS 3 Zrotation Xrotation Yrotation
                  JOINT LeftHandThumb2
                  {
                    OFFSET 3.4129 -1.121 2.5732
                    CHANNELS 3 Zrotation Xrotation Yrotation
                    JOINT LeftHandThumb3
                    {
                      OFFSET 2.2474 -0.804199 1.6192
                      CHANNELS 3 Zrotation Xrotation Yrotation
                      End Site
                      {
                        OFFSET 1.6527 -0.5689 1.1317
                      }
                    }
                  }
                }
              }
            }
          }
        }
        JOINT RightShoulder
        {
          OFFSET -2.2086 21.1115 7.2329
          CHANNELS 3 Zrotation Xrotation Yrotation
          JOINT RightArm
          {
            OFFSET -13.1216 3.0287 -4.9007
            CHANNELS 3 Zrotation Xrotation Yrotation
            JOINT RightForeArm
            {
              OFFSET -27.4081 -0.0973053 -0.2375
              CHANNELS 3 Zrotation Xrotation Yrotation
              JOINT RightHand
              {
                OFFSET -22.8641 0.0664063 -0.1369
                CHANNELS 3 Zrotation Xrotation Yrotation
                JOINT RightHandIndex1
                {
                  OFFSET -8.8614 0.774994 2.4612
                  CHANNELS 3 Zrotation Xrotation Yrotation
                  JOINT RightHandIndex2
                  {
                    OFFSET -3.3146 -0.808304 0.5841
                    CHANNELS 3 Zrotation Xrotation Yrotation
                    JOINT RightHandIndex3
                    {
                      OFFSET -2.2628 -0.552002 0.3989
                      CHANNELS 3 Zrotation Xrotation Yrotation
                      End Site
                      {
                        OFFSET -1.6102 -0.4807 0.2612
                      }
                    }
                  }
                }
                JOINT RightHandMiddle1
                {
                  OFFSET -8.9937 0.894989 0.2143
                  CHANNELS 3 Zrotation Xrotation Yrotation
                  JOINT RightHandMiddle2
                  {
                    OFFSET -4.0984 0.0113983 -0.0242
                    CHANNELS 3 Zrotation Xrotation Yrotation
                    JOINT RightHandMiddle3
                    {
                      OFFSET -2.2716 0.00691223 -0.0138001
                      CHANNELS 3 Zrotation Xrotation Yrotation
                      End Site
                      {
                        OFFSET -2.0404 -0.1441 0.0027
                      }
                    }
                  }
                }
                JOINT RightHandRing1
                {
                  OFFSET -8.5234 0.597198 -2.0164
                  CHANNELS 3 Zrotation Xrotation Yrotation
                  JOINT RightHandRing2
                  {
                    OFFSET -3.7188 -0.188309 -0.2328
                    CHANNELS 3 Zrotation Xrotation Yrotation
                    JOINT RightHandRing3
                    {
                      OFFSET -2.1191 -0.106598 -0.1332
                      CHANNELS 3 Zrotation Xrotation Yrotation
                      End Site
                      {
                        OFFSET -1.8737 -0.2304 -0.0886
                      }
                    }
                  }
                }
                JOINT RightHandPinky1
                {
                  OFFSET -7.9094 -0.601105 -3.4825
                  CHANNELS 3 Zrotation Xrotation Yrotation
                  JOINT RightHandPinky2
                  {
                    OFFSET -2.2874 -0.477005 -0.6314
                    CHANNELS 3 Zrotation Xrotation Yrotation
                    JOINT RightHandPinky3
                    {
                      OFFSET -1.6774 -0.349396 -0.4633
                      CHANNELS 3 Zrotation Xrotation Yrotation
                      End Site
                      {
                        OFFSET -1.4888 -0.4091 -0.3416
                      }
                    }
                  }
                }
                JOINT RightHandThumb1
                {
                  OFFSET -1.833 -1.38751 1.3896
                  CHANNELS 3 Zrotation Xrotation Yrotation
                  JOINT RightHandThumb2
                  {
                    OFFSET -3.41299 -1.12099 2.5732
                    CHANNELS 3 Zrotation Xrotation Yrotation
                    JOINT RightHandThumb3
                    {
                      OFFSET -2.24741 -0.804108 1.6192
                      CHANNELS 3 Zrotation Xrotation Yrotation
                      End Site
                      {
                        OFFSET -1.6527 -0.5689 1.1317
                      }
                    }
                  }
                }
              }
            }
          }
        }
      }
    }
  }
  JOINT RightUpLeg
  {
    OFFSET -9.1966 3.8861 -0.7581
    CHANNELS 3 Zrotation Xrotation Yrotation
    JOINT RightLeg
    {
      OFFSET -0.7359 -41.0265 0
      CHANNELS 3 Zrotation Xrotation Yrotation
      JOINT RightFoot
      {
        OFFSET 0 -40.2855 0
        CHANNELS 3 Zrotation Xrotation Yrotation
        JOINT RightToeBase
        {
          OFFSET 0 -5.6122 11.7359
          CHANNELS 3 Zrotation Xrotation Yrotation
          End Site
          {
            OFFSET 0 0 7.8731
          }
        }
      }
    }
  }
  JOINT LeftUpLeg
  {
    OFFSET 9.1965 3.8864 -0.7581
    CHANNELS 3 Zrotation Xrotation Yrotation
    JOINT LeftLeg
    {
      OFFSET 0.7359 -41.0268 0
      CHANNELS 3 Zrotation Xrotation Yrotation
      JOINT LeftFoot
      {
        OFFSET 0 -40.2855 0
        CHANNELS 3 Zrotation Xrotation Yrotation
        JOINT LeftToeBase
        {
          OFFSET 0 -5.6122 11.7359
          CHANNELS 3 Zrotation Xrotation Yrotation
          End Site
          {
            OFFSET 0 0 7.8731
          }
        }
      }
    }
  }
}
MOTION
Frames:	4
Frame Time:	0.0333333
-0.782181 12.1236 21.3786 -1.46329e-014 47.3461 -180 -0.337774 14.5655 -0.0112172 -0.708805 29.131 0.0736008 -0.708805 29.131 0.0736007 -10.1763 -32.2073 -5.66781 -11.138 -11.399 -26.8642 10.9352 9.26745 -20.6314 -54.6352 6.47103 -31.5278 -6.72644 0.939157 0.152907 -8.1311 -5.83696 -14.8676 -5.08395e-007 1.16918e-006 1.07933e-006 -1.59028e-015 6.36111e-015 -7.95139e-016 -5.08395e-007 1.16918e-006 1.07933e-006 -5.08395e-007 1.16918e-006 1.07933e-006 -0.0146123 -8.92086e-005 3.83853e-006 -5.08349e-007 1.16904e-006 1.07948e-006 -5.08395e-007 1.16918e-006 1.07933e-006 -0.0187767 -0.00117747 6.16237e-005 -5.08325e-007 1.169e-006 1.07953e-006 -5.08395e-007 1.16918e-006 1.07933e-006 -0.0123445 -0.00326517 0.000678139 -5.08319e-007 1.16907e-006 1.07947e-006 -5.08395e-007 1.16918e-006 1.07933e-006 -1.59028e-015 6.36111e-015 -7.95139e-016 -5.08395e-007 1.16918e-006 1.07933e-006 -10.3579 9.97407 21.0706 53.8644 6.02805 31.0464 6.3079 0.947526 -0.153344 8.22695 -6.74746 15.3818 -4.81795e-007 -1.2083e-006 1.05014e-006 4.81795e-007 1.2083e-006 -1.05014e-006 -1.65874e-006 -3.16303e-007 4.51688e-006 -4.81795e-007 -1.2083e-006 1.05014e-006 0.0150016 -8.90183e-005 4.0264e-007 -1.65878e-006 -3.15712e-007 4.51692e-006 -4.81795e-007 -1.2083e-006 1.05014e-006 0.0189712 -0.00119211 -6.09837e-005 -1.65874e-006 -3.15553e-007 4.51695e-006 -4.81795e-007 -1.2083e-006 1.05014e-006 0.0122938 -0.00325516 -0.000675651 -1.65864e-006 -3.15821e-007 4.51696e-006 -4.81795e-007 -1.2083e-006 1.05014e-006 4.81795e-007 1.2083e-006 -1.05014e-006 -1.65874e-006 -3.16303e-007 4.51688e-006 -46.7171 -26.5598 -81.7486 -7.62831 49.7379 59.5789 -15.3088 28.0123 -32.007 0 7.95139e-015 -0 46.7003 -26.5614 81.7304 7.60619 49.7367 -59.5634 15.2997 28.0099 31.9994 -1.89499e-006 8.7574e-007 4.39769e-007 
-0.782186 12.0064 21.6315 -1.44045e-014 46.4758 -180 -0.338147 14.6123 -0.0103701 -0.710083 29.2244 0.0758798 -0.710084 29.2244 0.0758804 -9.99942 -31.2696 -5.45837 -10.5043 -11.072 -26.6061 11.151 8.79263 -20.72 -54.6352 6.47102 -31.5278 -6.72642 0.939163 0.152914 -7.64672 -6.2611 -15.4577 1.02011e-006 -2.34104e-006 -2.15564e-006 -7.95139e-016 -6.36111e-015 -0 1.72369e-006 -1.85402e-007 -4.49667e-006 1.02011e-006 -2.34104e-006 -2.15564e-006 -0.0145512 -8.74112e-005 4.64416e-006 1.72372e-006 -1.84831e-007 -4.4967e-006 1.02011e-006 -2.34104e-006 -2.15564e-006 -0.0187805 -0.00118075 6.00756e-005 2.40926e-006 -1.234e-006 -4.94454e-006 1.02011e-006 -2.34104e-006 -2.15564e-006 -0.0122513 -0.00324374 0.000673674 1.72359e-006 -1.84923e-007 -4.49674e-006 1.02011e-006 -2.34104e-006 -2.15564e-006 -7.95139e-016 -6.36111e-015 -0 1.72369e-006 -1.85402e-007 -4.49667e-006 -10.5362 9.54409 21.1908 53.8644 6.02806 31.0464 6.30789 0.947522 -0.153344 7.75543 -7.23134 16.0024 9.67203e-007 2.41825e-006 -2.09815e-006 -3.66209e-006 1.04538e-006 -4.84895e-006 4.83601e-007 1.20913e-006 -1.04907e-006 9.67203e-007 2.41825e-006 -2.09815e-006 0.0149612 -9.31961e-005 -1.03206e-006 4.83555e-007 1.20899e-006 -1.04923e-006 9.67203e-007 2.41825e-006 -2.09815e-006 0.0190172 -0.00119333 -6.0911e-005 4.83532e-007 1.20896e-006 -1.04928e-006 9.67203e-007 2.41825e-006 -2.09815e-006 0.0123249 -0.00325834 -0.000674492 -4.31906e-007 8.37732e-009 -8.16452e-007 9.67203e-007 2.41825e-006 -2.09815e-006 -3.66209e-006 1.04538e-006 -4.84895e-006 4.83601e-007 1.20913e-006 -1.04907e-006 -46.7117 -27.29 -82.0299 -7.31588 49.2439 59.3644 -14.9632 28.2905 -32.3376 -4.35891e-007 -2.04153e-006 3.17502e-007 46.694 -27.2916 82.0108 7.2928 49.2428 -59.3478 14.9507 28.2879 32.3296 3.21491e-007 1.69113e-006 1.41768e-007 
-0.782192 11.8898 21.8861 -1.41834e-014 45.6058 -180 -0.338525 14.6589 -0.00952307 -0.711379 29.3177 0.0781635 -0.711379 29.3177 0.0781636 -9.82763 -30.3283 -5.25364 -9.87159 -10.7416 -26.3516 11.3658 8.31751 -20.8067 -54.6352 6.47102 -31.5279 -6.72645 0.939168 0.152916 -7.16648 -6.69006 -16.0445 -1.72266e-006 1.90897e-007 4.49628e-006 -5.11759e-007 1.17179e-006 1.07635e-006 -1.59028e-015 3.18055e-015 -0 -1.72266e-006 1.90897e-007 4.49628e-006 -0.0146159 -9.07024e-005 9.83566e-006 -7.04802e-007 1.05091e-006 4.57988e-007 -1.72266e-006 1.90897e-007 4.49628e-006 -0.0188029 -0.00117557 6.46944e-005 7.95139e-016 6.36111e-015 -1.59028e-015 -1.72266e-006 1.90897e-007 4.49628e-006 -0.0123005 -0.00324988 0.000680099 3.18055e-015 3.18055e-015 -2.38542e-015 -1.72266e-006 1.90897e-007 4.49628e-006 -5.11759e-007 1.17179e-006 1.07635e-006 -1.59028e-015 3.18055e-015 -0 -10.7133 9.11373 21.3095 53.8644 6.02807 31.0464 6.30788 0.947523 -0.153347 7.28883 -7.72012 16.6195 -4.85441e-007 -1.20989e-006 1.04806e-006 -9.70882e-007 -2.41979e-006 2.09611e-006 -4.85441e-007 -1.20989e-006 1.04806e-006 -4.85441e-007 -1.20989e-006 1.04806e-006 0.0149478 -9.4502e-005 -4.10259e-006 4.44993e-007 -8.54648e-009 8.02869e-007 -4.85441e-007 -1.20989e-006 1.04806e-006 0.0189855 -0.00118685 -5.78543e-005 -4.85372e-007 -1.20972e-006 1.04826e-006 -4.85441e-007 -1.20989e-006 1.04806e-006 0.0122775 -0.00324904 -0.000671607 4.45256e-007 -8.27776e-009 8.02917e-007 -4.85441e-007 -1.20989e-006 1.04806e-006 -9.70882e-007 -2.41979e-006 2.09611e-006 -4.85441e-007 -1.20989e-006 1.04806e-006 -46.7104 -28.0203 -82.3129 -7.00951 48.7491 59.1562 -14.6133 28.5669 -32.671 3.78958e-007 1.75214e-007 -8.79943e-008 46.6915 -28.0217 82.2926 6.98529 48.7475 -59.1386 14.6008 28.5643 32.6628 -5.76443e-008 1.86622e-006 2.29956e-007 
-0.782197 11.7739 22.1424 -1.39691e-014 44.736 -180 -0.338911 14.7057 -0.00867671 -0.712691 29.4111 0.0804509 -0.712691 29.4111 0.0804508 -9.66069 -29.3833 -5.05342 -9.24001 -10.4079 -26.1007 11.5795 7.84214 -20.8914 -54.6352 6.47104 -31.5278 -6.72644 0.93916 0.152913 -6.6904 -7.12371 -16.628 -5.13508e-007 1.173e-006 1.07491e-006 -7.95139e-015 -3.18055e-015 -7.15625e-015 -3.02354e-007 1.29362e-006 1.68138e-006 -5.13508e-007 1.173e-006 1.07491e-006 -0.0145876 -8.82744e-005 -1.37846e-006 -1.02693e-006 2.34573e-006 2.15013e-006 -5.13508e-007 1.173e-006 1.07491e-006 -0.0187904 -0.00118002 6.06032e-005 -1.02688e-006 2.34566e-006 2.15022e-006 -5.13508e-007 1.173e-006 1.07491e-006 -0.0123142 -0.00325887 0.00067536 -3.03375e-007 1.29315e-006 1.68159e-006 -5.13508e-007 1.173e-006 1.07491e-006 -7.95139e-015 -3.18055e-015 -7.15625e-015 -3.02354e-007 1.29362e-006 1.68138e-006 -10.8894 8.68306 21.4267 53.8644 6.02807 31.0464 6.3079 0.94752 -0.153346 6.8272 -8.21366 17.233 -2.38542e-015 6.36111e-015 -7.95139e-016 -6.27627e-006 -4.63377e-007 -5.89401e-008 9.46572e-007 1.20201e-006 -2.58096e-007 -2.38542e-015 6.36111e-015 -7.95139e-016 0.0150315 -9.37045e-005 2.80049e-007 -3.18055e-015 -1.90833e-014 -0 -2.38542e-015 6.36111e-015 -7.95139e-016 0.0190364 -0.00119024 -5.79786e-005 -7.95139e-016 3.18055e-015 7.95139e-016 -2.38542e-015 6.36111e-015 -7.95139e-016 0.0122849 -0.0032492 -0.000673809 -7.95139e-016 6.36111e-015 7.95139e-016 -2.38542e-015 6.36111e-015 -7.95139e-016 -6.27627e-006 -4.63377e-007 -5.89401e-008 9.46572e-007 1.20201e-006 -2.58096e-007 -46.713 -28.7503 -82.5975 -6.70884 48.253 58.9541 -14.2589 28.8418 -33.0073 -3.22352e-007 -1.54304e-006 -2.4518e-006 46.6932 -28.7517 82.5761 6.68366 48.2513 -58.9356 14.2465 28.8391 32.9988 1.57483e-006 6.67454e-007 -2.88776e-006 
